<?xml version="1.0" encoding="UTF-8"?>
<svg width="949px" height="741px" viewBox="0 0 949 741" version="1.1" xmlns="http://www.w3.org/2000/svg" xmlns:xlink="http://www.w3.org/1999/xlink">
    <!-- Generator: Sketch 50.2 (55047) - http://www.bohemiancoding.com/sketch -->
    <title>Fill 82</title>
    <desc>Created with Sketch.</desc>
    <defs></defs>
    <g id="Page-1" stroke="none" stroke-width="1" fill="none" fill-rule="evenodd" opacity="0.049999997">
        <g id="Artboard-1" transform="translate(-535.000000, -232.000000)" fill="#FFFFFF">
            <path d="M814.917,289.9165 C806.656,284.7585 807.538,272.4105 816.474,268.5385 C835.615,260.2435 855.787,254.5895 876.843,251.9685 C913.416,247.4155 950.588,251.0075 986.418,259.1035 C1035.725,270.2435 1082.269,289.9685 1128.226,310.9485 C1134.109,313.6345 1133.436,322.1985 1127.209,323.9485 C1114.974,327.3865 1103.011,331.6765 1091.671,335.7565 C1050.256,350.6605 1007.107,368.3375 962.153,363.9375 C914.801,359.3025 873.377,330.3895 835.495,303.9425 C829.264,299.5925 822.299,294.5245 814.917,289.9165 M539.01,896.7985 C548.177,934.2015 573.531,964.0875 598.042,992.6575 C605.256,1001.0665 645.918,991.5175 635.781,979.7025 C605.842,944.8065 570.675,902.6555 578.295,853.1245 C585.132,808.6855 628.153,785.7255 655.817,755.0265 C677.637,730.8135 693.846,699.8685 682.724,666.9155 C674.132,641.4575 653.662,622.1535 636.04,602.7465 C617.376,582.1935 599.572,559.0445 601.772,529.6485 C604.49,493.3405 628.725,461.9015 648.621,432.9185 C682.267,383.9065 718.779,333.0765 767.104,297.2695 C767.86,296.9885 768.626,296.7375 769.404,296.5295 C769.352,296.5795 771.526,296.1625 771.927,296.1285 C777.606,295.6465 780.55,296.2275 786.422,298.3455 C799.727,303.1445 811.704,311.8785 823.731,320.2635 C858.485,344.4915 894.459,369.3795 936.127,379.9675 C984.924,392.3665 1033.357,376.9015 1079.111,360.3135 C1115.184,347.2355 1158.229,327.8235 1196.611,342.2715 C1199.145,343.3985 1201.679,344.5195 1204.216,345.6305 C1274.778,376.5295 1350.463,402.2545 1428.412,399.0305 C1431.224,400.1015 1434.388,400.5085 1436.9,400.4065 C1463.455,399.3195 1490.063,398.8605 1516.628,399.8635 C1588.243,402.5665 1661.651,415.9335 1723.006,454.8775 C1775.739,488.3505 1818.192,538.6165 1832.95,600.1895 C1834.516,606.7235 1847.143,607.1375 1851.894,606.3845 C1857.775,605.4535 1864.274,602.2515 1862.65,595.4735 C1856.234,568.7065 1844.569,543.3555 1828.653,520.9005 C1790.362,466.8795 1733.563,428.6015 1671.127,407.6985 C1598.61,383.4195 1521.433,379.7025 1445.535,382.3415 C1442.635,381.1385 1439.311,380.6675 1436.7,380.8455 C1355.828,386.3365 1280.569,357.7675 1207.617,324.9935 C1207.097,324.5625 1206.51,324.1885 1205.834,323.8995 C1204.325,323.2545 1202.805,322.6795 1201.281,322.1335 C1173.222,309.4215 1145.489,296.2135 1117.896,284.2175 C1046.62,253.2285 969.57,227.5425 890.741,232.8285 C852.674,235.3805 815.527,244.2015 781.583,261.9735 C752.245,277.3335 725.9,298.2105 702.753,321.8035 C679.077,345.9355 658.264,372.6425 638.595,400.0895 C628.821,413.7295 619.316,427.5575 609.892,441.4405 C599.433,456.8455 588.932,472.5525 581.491,489.6925 C574.402,506.0215 569.087,524.5065 571.221,542.4785 C572.906,556.6735 577.861,569.9645 585.701,581.9045 C600.785,604.8765 621.873,622.7045 638.355,644.5265 C645.363,653.8035 652.155,664.9815 654.412,676.5495 C657.461,692.1735 654.716,707.4705 647.108,721.4175 C630.487,751.8845 600.374,770.3775 577.436,795.4345 C566.231,807.6735 544.526,825.7645 539.769,841.8925 C534.401,860.0885 534.507,878.4255 539.01,896.7985" id="Fill-82"></path>
        </g>
    </g>
</svg>